<svg xmlns="http://www.w3.org/2000/svg" viewBox="0 0 693.41 693.41">
    <polygon fill="#33ffcc" points="693.41 328.46 693.41 364.95 583.92 364.95 583.92 401.45 510.93 401.45 510.93 437.94 474.43 437.94 474.43 474.44 437.94 474.44 437.94 510.94 401.44 510.94 401.44 583.93 364.95 583.93 364.95 693.41 328.45 693.41 328.45 583.93 291.96 583.93 291.96 510.94 255.46 510.94 255.46 474.44 218.97 474.44 218.97 437.94 182.47 437.94 182.47 401.45 109.48 401.45 109.48 364.95 0 364.95 0 328.46 109.48 328.46 109.48 291.96 182.47 291.96 182.47 255.47 218.97 255.47 218.97 218.97 255.46 218.97 255.46 182.48 291.96 182.48 291.96 109.49 328.45 109.49 328.45 0 364.95 0 364.95 109.49 401.44 109.49 401.44 182.48 437.94 182.48 437.94 218.97 474.43 218.97 474.43 255.47 510.93 255.47 510.93 291.96 583.92 291.96 583.92 328.46 693.41 328.46"/>
</svg>